<svg id="Capa_1" data-name="Capa 1" xmlns="http://www.w3.org/2000/svg" viewBox="0 0 32 32"><defs><style>.cls-1{fill:#e97d1e;}</style></defs><title>favicon BP</title><path class="cls-1" d="M31.67,10c-.52-.76-1.67-1.2-3.46-1.2H20l-.18.42a2,2,0,0,1,.33.39,2.88,2.88,0,0,1,0,3.09,6.32,6.32,0,0,1-2.12,2.39,6.16,6.16,0,0,1-1,.57A2.23,2.23,0,0,1,18,16.67a3.32,3.32,0,0,1-.32,2.7A6.91,6.91,0,0,1,16,21.54,8.68,8.68,0,0,1,13.58,23a1.4,1.4,0,0,1-.54.15H18L20.56,18h2.7a9.66,9.66,0,0,0,5-1.28,8,8,0,0,0,3.11-3.45c.69-1.41.77-2.55.26-3.32M26.55,13.4a2.82,2.82,0,0,1-1.14,1.24,4.47,4.47,0,0,1-2.22.55H22l1.56-3.35H25c.92,0,1.47.13,1.65.45a1.11,1.11,0,0,1-.05,1.11"/><path class="cls-1" d="M21.77,18.27c1.85,3.34,2.36,6.3,1,7.7-1.67,1.77-5.79.56-10.18-2.68-.46.07-1.11.16-1.91.23,5.47,4.5,11,6.3,13.1,4,1.63-1.73.89-5.42-1.52-9.27Z"/><path class="cls-1" d="M13.39,22.56a8.26,8.26,0,0,0,2.26-1.41,6.43,6.43,0,0,0,1.56-2,2.79,2.79,0,0,0,.3-2.27,2.5,2.5,0,0,0-1.91-1.28,7.38,7.38,0,0,0,2.19-1,5.83,5.83,0,0,0,1.95-2.18,2.48,2.48,0,0,0,0-2.61c-.49-.68-1.5-1.08-3-1.08H7.46L5,14v0l-.42.87C1.67,10.65.61,6.71,2.2,5,4,3.14,8.47,4.65,13.14,8.25h.4C8.21,3.88,3,2,.89,4.25c-1.95,2.07-.59,6.92,3,12l-.71,1.46v0L.46,23.15H9a8.33,8.33,0,0,0,.95,0s0,0,0,0c.86-.07,1.83-.22,2.38-.32a5.94,5.94,0,0,0,1.06-.29M11,11.84H13.2c.75,0,1.21.09,1.4.32s.18.55,0,1a2.54,2.54,0,0,1-1,1.11,3.56,3.56,0,0,1-1.78.43H9.69Zm.43,7.86a4.11,4.11,0,0,1-2,.37H6.94L8.36,17.5h2.51c.86,0,1.4,0,1.62.25s.23.51,0,.94a2.36,2.36,0,0,1-1.06,1"/></svg>